<?xml version="1.0" standalone="no"?><!DOCTYPE svg PUBLIC "-//W3C//DTD SVG 1.1//EN" "http://www.w3.org/Graphics/SVG/1.1/DTD/svg11.dtd"><svg t="1749640757750" class="icon" viewBox="0 0 1365 1024" version="1.1" xmlns="http://www.w3.org/2000/svg" p-id="31221" xmlns:xlink="http://www.w3.org/1999/xlink" width="341.25" height="256"><path d="M327.68 621.226667s34.133333-46.08 15.36-150.186667l175.786667-13.653333-10.24 93.866666 10.24 69.973334H327.68z" fill="#D5A778" p-id="31222"></path><path d="M628.053333 621.226667s34.133333-46.08 15.36-150.186667l175.786667-11.946667-10.24 93.866667 10.24 69.973333H628.053333z" fill="#FFBD22" p-id="31223"></path><path d="M1051.306667 320.853333l110.933333-259.413333h47.786667l128 259.413333z" fill="#79E0EB" p-id="31224"></path><path d="M861.866667 907.946667c29.013333 0 52.906667 20.48 52.906666 46.08v25.6c0 5.12-5.12 10.24-11.946666 10.24-6.826667 0-11.946667-5.12-11.946667-10.24v-25.6c0-15.36-13.653333-27.306667-29.013333-27.306667h-631.466667c-17.066667 0-30.72 11.946667-30.72 27.306667v25.6c0 5.12-5.12 10.24-11.946667 10.24-6.826667 0-11.946667-5.12-11.946666-10.24v-25.6c0-25.6 23.893333-46.08 52.906666-46.08h633.173334zM831.146667 165.546667c40.96 0 73.386667 32.426667 73.386666 73.386666v179.2c5.12-1.706667 11.946667-3.413333 17.066667-3.413333h124.586667c11.946667 0 22.186667 5.12 30.72 13.653333 6.826667 8.533333 11.946667 20.48 10.24 30.72l-35.84 314.026667c-6.826667 64.853333-63.146667 114.346667-129.706667 114.346667H165.546667c-66.56 0-122.88-49.493333-129.706667-114.346667L0 457.386667c-1.706667-11.946667 1.706667-22.186667 10.24-30.72 6.826667-8.533333 18.773333-13.653333 30.72-13.653334h124.586667c6.826667 0 11.946667 1.706667 17.066666 3.413334V237.226667c0-40.96 32.426667-73.386667 73.386667-73.386667h575.146667z m-665.6 269.653333H40.96c-5.12 0-10.24 1.706667-13.653333 5.12-3.413333 3.413333-5.12 8.533333-5.12 13.653333L59.733333 768c6.826667 54.613333 52.906667 93.866667 107.52 93.866667H921.6c54.613333 0 100.693333-40.96 107.52-93.866667l35.84-314.026667c0-5.12-1.706667-10.24-5.12-13.653333-3.413333-3.413333-8.533333-5.12-13.653333-5.12H921.6c-10.24 0-17.066667 8.533333-17.066667 17.066667v114.346666c0 40.96-32.426667 73.386667-73.386666 73.386667H256c-40.96 0-73.386667-32.426667-73.386667-73.386667v-114.346666c0-8.533333-8.533333-17.066667-17.066666-17.066667z m344.746666 35.84c-35.84 5.12-73.386667 8.533333-112.64 8.533333s-76.8-3.413333-112.64-8.533333c10.24 49.493333 10.24 97.28 3.413334 146.773333h218.453333c-6.826667-47.786667-6.826667-97.28 3.413333-146.773333z m291.84 0c-35.84 5.12-73.386667 8.533333-112.64 8.533333s-76.8-3.413333-112.64-8.533333c10.24 49.493333 10.24 97.28 3.413334 146.773333h218.453333c-8.533333-47.786667-6.826667-97.28 3.413333-146.773333zM831.146667 187.733333H256c-27.306667 0-51.2 22.186667-51.2 51.2v327.68c0 27.306667 22.186667 51.2 51.2 51.2h8.533333c8.533333-52.906667 6.826667-105.813333-6.826666-158.72-1.706667-3.413333 0-6.826667 3.413333-10.24 3.413333-3.413333 6.826667-3.413333 10.24-3.413333 39.253333 6.826667 81.92 11.946667 124.586667 11.946667s85.333333-3.413333 124.586666-11.946667c3.413333 0 8.533333 0 10.24 3.413333 3.413333 3.413333 3.413333 6.826667 3.413334 10.24-13.653333 52.906667-15.36 105.813333-6.826667 158.72h27.306667c8.533333-52.906667 6.826667-105.813333-6.826667-158.72-1.706667-3.413333 0-6.826667 3.413333-10.24 3.413333-3.413333 6.826667-3.413333 10.24-3.413333 39.253333 6.826667 81.92 11.946667 124.586667 11.946667s85.333333-3.413333 124.586667-11.946667c3.413333 0 8.533333 0 10.24 3.413333 3.413333 3.413333 3.413333 6.826667 3.413333 10.24-13.653333 52.906667-15.36 105.813333-6.826667 158.72h8.533334c27.306667 0 51.2-22.186667 51.2-51.2V237.226667c5.12-27.306667-18.773333-49.493333-46.08-49.493334z" fill="#5B5B5B" p-id="31225"></path><path d="M1008.64 298.666667l13.653333-27.306667h61.44c6.826667 0 11.946667-5.12 11.946667-11.946667s-5.12-11.946667-11.946667-11.946666h-49.493333l59.733333-122.88H1177.6c6.826667 0 11.946667-5.12 11.946667-11.946667 0-6.826667-5.12-11.946667-11.946667-11.946667h-71.68l18.773333-37.546666H1211.733333l88.746667 182.613333h-170.666667c-6.826667 0-11.946667 5.12-11.946666 11.946667s5.12 11.946667 11.946666 11.946666h180.906667l13.653333 27.306667H1008.64z m346.453333 6.826666L1331.2 256 1230.506667 49.493333c-1.706667-3.413333-6.826667-6.826667-10.24-6.826666h-104.106667c-5.12 0-8.533333 1.706667-10.24 6.826666L1075.2 110.933333 979.626667 307.2c-1.706667 3.413333-1.706667 6.826667 0 10.24 1.706667 3.413333 5.12 5.12 10.24 5.12h165.546666v576.853333h-18.773333c-29.013333 0-54.613333 23.893333-54.613333 52.906667v27.306667c0 6.826667 5.12 11.946667 11.946666 11.946666 6.826667 0 11.946667-5.12 11.946667-11.946666v-27.306667c0-17.066667 13.653333-29.013333 30.72-29.013333h18.773333v58.026666c0 6.826667 5.12 11.946667 11.946667 11.946667 6.826667 0 11.946667-5.12 11.946667-11.946667V921.6h18.773333c17.066667 0 30.72 13.653333 30.72 29.013333v27.306667c0 6.826667 5.12 11.946667 11.946667 11.946667 6.826667 0 11.946667-5.12 11.946666-11.946667v-27.306667c0-29.013333-23.893333-52.906667-54.613333-52.906666h-18.773333V322.56h165.546666c3.413333 0 6.826667-1.706667 10.24-5.12 1.706667-3.413333 1.706667-8.533333 0-11.946667z" fill="#5B5B5B" p-id="31226"></path></svg>