<?xml version="1.0" standalone="no"?><!DOCTYPE svg PUBLIC "-//W3C//DTD SVG 1.1//EN" "http://www.w3.org/Graphics/SVG/1.1/DTD/svg11.dtd"><svg t="1749607304891" class="icon" viewBox="0 0 1024 1024" version="1.1" xmlns="http://www.w3.org/2000/svg" p-id="21795" xmlns:xlink="http://www.w3.org/1999/xlink" width="64" height="64"><path d="M719.1 735.15a222.5 222.5 0 0 1-156.34-63.92H461.24a223.15 223.15 0 1 1-156.35-382.38H719.1a223.15 223.15 0 1 1 0 446.3z m-264.55-95.92h114.9a16 16 0 0 1 11.55 4.94 189.52 189.52 0 0 0 138.09 59c105.41 0 191.16-85.75 191.16-191.15S824.51 320.85 719.1 320.85H304.89c-105.4 0-191.15 85.75-191.15 191.15s85.75 191.15 191.15 191.15a189.54 189.54 0 0 0 138.1-59 16 16 0 0 1 11.56-4.92z" fill="#2c2c2c" p-id="21796"></path><path d="M353.84 511.19h-128a16 16 0 0 1 0-32h128a16 16 0 0 1 0 32z" fill="#2c2c2c" p-id="21797"></path><path d="M289.83 575.11a16 16 0 0 1-16-16V431.27a16 16 0 0 1 32 0v127.84a16 16 0 0 1-16 16zM737.92 575.2a80 80 0 1 1 80-80 80.1 80.1 0 0 1-80 80z m0-128a48 48 0 1 0 48 48 48.06 48.06 0 0 0-48-48.02z" fill="#2c2c2c" p-id="21798"></path></svg>