<?xml version="1.0" standalone="no"?><!DOCTYPE svg PUBLIC "-//W3C//DTD SVG 1.1//EN" "http://www.w3.org/Graphics/SVG/1.1/DTD/svg11.dtd"><svg t="1749630999311" class="icon" viewBox="0 0 1024 1024" version="1.1" xmlns="http://www.w3.org/2000/svg" p-id="27785" width="256" height="256" xmlns:xlink="http://www.w3.org/1999/xlink"><path d="M938.3 275.9c-13.9-32.1-33.8-60.9-59-85.6-25.2-24.6-54.5-43.8-87.1-57.4-33.7-14-69.4-21-106.2-21-51.1 0-101 14-144.4 40.3-10.4 6.3-20.2 13.2-29.6 20.8-9.3-7.5-19.2-14.5-29.6-20.8-43.4-26.4-93.2-40.3-144.4-40.3-36.8 0-72.5 7-106.2 21-32.6 13.4-61.9 32.8-87.1 57.4-25.3 24.7-45.1 53.4-59 85.6C71.4 309.3 64 344.8 64 381.3c0 34.4 7 70.3 21 106.7 11.7 30.5 28.5 62.1 50 94.1 34 50.5 80.8 103.3 138.9 156.7 96.2 88.6 191.6 149.8 195.6 152.3l24.6 15.7c10.9 6.9 24.9 6.9 35.8 0l24.6-15.7c4-2.6 99.3-63.7 195.6-152.3C808.2 685.4 855 632.6 889 582.1c21.5-31.9 38.4-63.6 50-94.1 14-36.5 21.1-72.4 21.1-106.8 0-36.4-7.4-71.9-21.8-105.3zM512 825S142.8 589.2 142.8 381.2c0-105.3 87.4-190.7 195.3-190.7 75.8 0 141.6 42.2 173.9 103.8 32.4-61.6 98.1-103.8 173.9-103.8 107.9 0 195.3 85.4 195.3 190.7C881.3 589.2 512 825 512 825z" p-id="27786" fill="#f8426e"></path></svg>