<?xml version="1.0" standalone="no"?><!DOCTYPE svg PUBLIC "-//W3C//DTD SVG 1.1//EN" "http://www.w3.org/Graphics/SVG/1.1/DTD/svg11.dtd"><svg t="1749607215736" class="icon" viewBox="0 0 1024 1024" version="1.1" xmlns="http://www.w3.org/2000/svg" p-id="18387" xmlns:xlink="http://www.w3.org/1999/xlink" width="64" height="64"><path d="M869.65248 90.55232l-102.13888 205.89056c-86.49216-83.2-232.91904-92.00128-232.91904-92.00128l68.38784-134.69696c2.82112-11.0848 12.416-19.456 24.38656-19.456h221.83936a25.61024 25.61024 0 0 1 25.6256 25.6c0 5.57568-2.1504 10.46016-5.18144 14.66368z m2.944 524.75392c0 197.93408-160.64 358.40512-358.78912 358.40512s-358.784-160.46592-358.784-358.40512c0-197.94432 160.63488-358.40512 358.784-358.40512s358.78912 160.4608 358.78912 358.40512z m-190.72512-82.4576l-97.76128-14.19776-43.7248-88.49408c-14.96576-30.29504-38.47168-29.71136-53.1456 0l-43.7248 88.49408-97.76128 14.19776c-33.46944 4.85376-40.17152 27.3664-16.42496 50.49344l70.74304 68.88448-16.69632 97.26464c-5.72416 33.30048 13.63968 46.62272 42.99264 31.21152l87.43936-45.9264 87.43936 45.9264c29.94176 15.72352 48.60928 1.43872 43.00288-31.21152l-16.70144-97.26464 70.74816-68.88448c24.21248-23.58272 16.39424-45.73696-16.42496-50.49344zM154.34752 90.55744c-3.02592-4.20352-5.18144-9.09312-5.18144-14.66368 0-14.14144 11.47392-25.6 25.63072-25.6h221.83936c11.96544 0 21.56544 8.37632 24.38144 19.456L489.40544 204.4416s-146.42176 8.80128-232.91392 92.00128l-102.144-205.88544z" fill="#666666" p-id="18388"></path></svg>