<?xml version="1.0" standalone="no"?><!DOCTYPE svg PUBLIC "-//W3C//DTD SVG 1.1//EN" "http://www.w3.org/Graphics/SVG/1.1/DTD/svg11.dtd"><svg t="1750124191975" class="icon" viewBox="0 0 1024 1024" version="1.1" xmlns="http://www.w3.org/2000/svg" p-id="4261" xmlns:xlink="http://www.w3.org/1999/xlink" width="256" height="256"><path d="M987.355429 403.675429c0-17.115429-18.285714-23.990857-32.036572-26.331429l-286.793143-41.691429-128.585143-259.949714C534.820571 64.804571 525.092571 52.297143 511.926857 52.297143s-22.893714 12.507429-28.013714 23.405714L355.401143 335.652571l-286.793143 41.691429C54.125714 379.757714 36.498286 386.633143 36.498286 403.748571c0 10.24 7.460571 19.968 14.262857 27.428572L258.852571 633.417143l-49.152 285.696c-0.585143 4.022857-1.097143 7.387429-1.097142 11.410286 0 14.848 7.387429 28.525714 23.990857 28.525714 8.045714 0 15.36-2.779429 22.820571-6.802286L511.926857 817.371429l256.585143 134.875428a46.445714 46.445714 0 0 0 22.820571 6.875429c16.603429 0 23.405714-13.750857 23.405715-28.525715 0-4.096 0-7.460571-0.512-11.483428L765.001143 633.417143l207.433143-202.313143c7.387429-7.460571 14.848-17.115429 14.848-27.428571z" fill="#FE9301" p-id="4262"></path></svg>