<?xml version="1.0" standalone="no"?><!DOCTYPE svg PUBLIC "-//W3C//DTD SVG 1.1//EN" "http://www.w3.org/Graphics/SVG/1.1/DTD/svg11.dtd"><svg t="1749607273725" class="icon" viewBox="0 0 1024 1024" version="1.1" xmlns="http://www.w3.org/2000/svg" p-id="20685" xmlns:xlink="http://www.w3.org/1999/xlink" width="64" height="64"><path d="M543.86722 1024h-4.248963c-21.244813-4.248963-38.240664-21.244813-38.240664-42.489627 0-106.224066-84.979253-191.20332-191.203319-191.203319h-33.991701c-106.224066 0-191.20332 84.979253-191.20332 191.203319 0 25.493776-16.995851 42.489627-42.489626 42.489627s-42.489627-16.995851-42.489627-42.489627c0-152.962656 123.219917-276.182573 276.182573-276.182572h33.991701c97.726141 0 182.705394 50.987552 233.692946 127.468879l84.979253-284.680497c8.497925-21.244813 29.742739-33.991701 50.987552-29.742739 21.244813 8.497925 33.991701 29.742739 29.742738 50.987552l-123.219917 420.647303c-4.248963 21.244813-21.244813 33.991701-42.489626 33.991701z" fill="#374151" p-id="20686"></path><path d="M284.680498 667.087137c-101.975104 0-182.705394-80.73029-182.705394-182.705394S182.705394 297.427386 284.680498 297.427386 467.385892 382.406639 467.385892 484.381743s-80.73029 182.705394-182.705394 182.705394z m0-284.680498c-55.236515 0-97.726141 42.489627-97.726141 97.726141s42.489627 97.726141 97.726141 97.726141 97.726141-42.489627 97.726141-97.726141S339.917012 382.406639 284.680498 382.406639z" fill="#374151" p-id="20687"></path><path d="M947.518672 692.580913h-169.958506c-25.493776 0-42.489627-16.995851-42.489627-42.489627s16.995851-42.489627 42.489627-42.489626H934.771784V89.228216H314.423237v114.721991c0 25.493776-16.995851 42.489627-42.489627 42.489627s-42.489627-16.995851-42.489627-42.489627V46.738589c0-25.493776 16.995851-42.489627 42.489627-42.489626h679.834025c38.240664 0 67.983402 29.742739 67.983402 67.983402v552.365145c0 38.240664-33.991701 67.983402-72.232365 67.983403z" fill="#374151" p-id="20688"></path><path d="M820.049793 352.6639h-280.431536c-25.493776 0-42.489627-16.995851-42.489626-42.489626s16.995851-42.489627 42.489626-42.489627h280.431536c25.493776 0 42.489627 16.995851 42.489626 42.489627s-16.995851 42.489627-42.489626 42.489626z" fill="#374151" p-id="20689"></path></svg>